#N canvas 45 116 739 413 10;
#X obj 312 76 import mrpeach;
#X obj 54 101 unpackOSC;
#X obj 85 283 s de_jog_z_up;
#X obj 64 306 s de_jog_z_down;
#X obj 54 126 routeOSC /oscControl;
#X obj 186 323 r de_z_focus;
#X obj 300 333 s de_onoff;
#X obj 187 345 s de_gotoendstop;
#X text 186 304 how do they work? what do they expect?;
#X obj 144 76 udpreceive 3001;
#X text 144 55 receive from python;
#X text 20 54 receive from App;
#X obj 35 76 udpreceive 3002;
#X obj 150 231 s de_jog_xy_x-big;
#X obj 124 257 s de_jog_xy_x+big;
#X obj 227 188 s de_jog_xy_y-big;
#X obj 188 208 s de_jog_xy_y+big;
#X text 37 6 this pd receives OSC via UDP and splits the datastream
into the delta microscope. X \, Y \, Z Axis is working \, On/Off is
untested, f 67;
#X obj 307 222 s python_fullautomation;
#X obj 366 201 s python_homeing;
#X obj 476 289 s de_x;
#X obj 541 290 s de_y;
#X floatatom 541 263 9 0 0 0 - - -, f 9;
#X floatatom 476 262 9 0 0 0 - - -, f 9;
#X floatatom 541 188 9 0 0 0 - - -, f 9;
#X floatatom 476 189 9 0 0 0 - - -, f 9;
#X obj 541 208 + 0.5;
#X obj 541 231 int;
#X obj 476 212 + 0.5;
#X obj 476 235 int;
#X text 619 62 rounding;
#X floatatom 609 263 9 0 0 0 - - -, f 9;
#X floatatom 609 188 9 0 0 0 - - -, f 9;
#X obj 609 208 + 0.5;
#X obj 609 231 int;
#X obj 609 290 s de_z_all;
#X obj 447 91 routeOSC /slider3D;
#X obj 447 116 routeOSC /x;
#X floatatom 675 225 9 0 0 0 - - -, f 9;
#X floatatom 619 110 9 0 0 0 - - -, f 9;
#X floatatom 678 92 9 0 0 0 - - -, f 9;
#X floatatom 682 18 9 0 0 0 - - -, f 9;
#X text 471 314 negative values are not rounded correctly!;
#X obj 54 154 routeOSC /Jog- /Jog+ /X+ /X- /Y+ /Y- /fullautomation
/homeing /slider3Dx /slider3Dy /slider3Dz /slider3D, f 110;
#X floatatom 376 181 9 0 0 0 - - -, f 9;
#X msg 660 37;
#X connect 1 0 4 0;
#X connect 4 0 43 0;
#X connect 9 0 1 0;
#X connect 12 0 1 0;
#X connect 22 0 21 0;
#X connect 23 0 20 0;
#X connect 24 0 26 0;
#X connect 25 0 28 0;
#X connect 26 0 27 0;
#X connect 27 0 22 0;
#X connect 28 0 29 0;
#X connect 29 0 23 0;
#X connect 31 0 35 0;
#X connect 32 0 33 0;
#X connect 33 0 34 0;
#X connect 34 0 31 0;
#X connect 36 0 37 0;
#X connect 36 0 40 0;
#X connect 36 1 45 0;
#X connect 37 0 39 0;
#X connect 43 0 3 0;
#X connect 43 1 2 0;
#X connect 43 2 14 0;
#X connect 43 3 13 0;
#X connect 43 4 16 0;
#X connect 43 5 15 0;
#X connect 43 6 18 0;
#X connect 43 7 44 0;
#X connect 43 8 25 0;
#X connect 43 9 24 0;
#X connect 43 10 32 0;
#X connect 43 11 38 0;
#X connect 44 0 19 0;
