#N canvas 398 50 944 496 10;
#X obj -24240 1329 unpackOSC;
#X obj -24240 1312 o.io.slipserial;
#X obj -24240 1290 packOSC;
#X floatatom -24242 1385 8 0 0 0 - - -, f 8;
#X floatatom -23808 1383 8 0 0 0 - - -, f 8;
#X msg -24214 1177 /;
#X obj -24221 1232 list trim;
#X obj -24306 1224 tgl 30 0 empty empty on/off_movement 0 -6 0 12 -260097
-1 -1 1 1;
#X obj -24306 1130 bng 32 250 50 0 empty empty push_settings 0 -8 0
12 -260097 -1 -1;
#X obj -24240 1268 spigot;
#X floatatom -23893 1382 8 0 0 0 - - -, f 8;
#X floatatom -24049 1054 9 0 0 1 z-sum - -, f 9;
#X obj -22885 236 t b b b b;
#X floatatom -22960 340 12 0 0 1 zTicks(A) - -, f 12;
#X text -22813 263 =L;
#X floatatom -22961 413 12 0 0 1 zTicks(B) - -, f 12;
#X floatatom -22960 492 12 0 0 1 zTicks(C) - -, f 12;
#X floatatom -22828 324 12 0 0 1 - - -, f 12;
#X floatatom -22828 397 12 0 0 1 - - -, f 12;
#X floatatom -22828 476 12 0 0 1 - - -, f 12;
#X text -22730 263 =Ax0=Bx0;
#X text -22625 264 =Ay0=By0;
#X text -22523 266 =Cy0;
#X obj -22828 300 expr sqrt(pow($f1 \, 2)-pow(($f2+$f3) \, 2)-pow(($f4+$f5)
\, 2));
#X obj -22828 357 expr sqrt(pow($f1 \, 2)-pow(($f2-$f3) \, 2)-pow(($f4+$f5)
\, 2));
#X obj -22828 438 expr sqrt(pow($f1 \, 2)-pow($f3 \, 2)-pow(($f2-$f4)
\, 2));
#X obj -22988 10 tgl 20 0 empty empty Kinematics 30 10 0 24 -1 -1 -1
0 1;
#X obj -22960 359 int;
#X obj -22961 434 int;
#X obj -22960 512 int;
#X obj -24268 1026 t a a;
#X obj -24007 561 tgl 30 0 empty empty JOG_x-y 32 15 0 25 -1 -1 -1
0 1;
#X obj -24053 702 tgl 12 0 empty empty d_step-size 15 6 0 12 -1 -1
-1 0 1;
#X floatatom -24312 716 8 0 0 1 z-jog - -, f 8;
#X floatatom -24312 778 8 0 0 1 z-sum - -, f 8;
#X obj -24319 562 tgl 30 0 empty empty JOG_z 32 15 0 25 -1 -1 -1 0
1;
#X obj -24312 680 tgl 12 0 empty empty d_step-size 15 6 0 12 -1 -1
-1 0 1;
#X obj -24298 901 tgl 30 0 empty empty pack_send_receive 32 15 0 25
-1 -1 -1 0 1;
#X text -23751 970 max speed = 40000 ticks/s defined in teensy;
#X text -22890 41 L & R to measure and convert to ticks;
#X text -22890 56 nema17 \, 0.9degrees_16usteps=6400;
#X text -22889 73 1step = 0.0495um;
#X text -22883 156 A = SQRT(L^2 - La^2) ....+ Z A = SQRT(L^2 - (Ax0+x)^2-(Ay0+y)^2)
B = SQRT(L^2 - Lb^2) ....+ Z B = SQRT(L^2 - (Bx0-x)^2-(By0+y)^2) C
= SQRT(L^2 - Lc^2) ....+ Z C = SQRT(L^2 - x^2-(Cy0-y)^2);
#X msg -22885 264 1.21455e+006;
#X msg -22773 264 408178;
#X msg -22667 265 235663;
#X msg -22565 266 471323;
#X text -22887 100 TU-setup: L=60.12mm= 1.21455e+006 ticks Ax0=Bx0=408178
ticks Ay0=By0=235663 ticks Cy0=471323 ticks;
#X obj -24319 2 cnv 15 490 550 empty empty empty 20 12 0 14 -204786
-66577 0;
#X msg -24235 132 close;
#X msg -24317 62 devices;
#X obj -24317 10 tgl 30 0 empty empty delta_module_and_cam_trigger
35 15 0 24 -1 -1 -1 0 1;
#X obj -24184 83 tgl 20 0 empty empty on/off_all 0 -6 0 12 -260097
-1 -1 1 1;
#X obj -23948 85 bng 20 250 50 0 empty empty push_settings 0 -8 0 12
-159808 -1 -1;
#X obj -24036 342 bng 30 250 50 0 empty empty empty 17 7 0 10 -4032
-1 -1;
#X obj -23948 342 bng 30 250 50 0 empty empty empty 17 7 0 10 -4032
-1 -1;
#X obj -23992 298 bng 30 250 50 0 empty empty empty 17 7 0 10 -4032
-1 -1;
#X obj -23991 386 bng 30 250 50 0 empty empty empty 17 7 0 10 -4032
-1 -1;
#X obj -24090 332 bng 50 250 50 0 empty empty empty 17 7 0 10 -4032
-1 -1;
#X obj -23913 331 bng 50 250 50 0 empty empty empty 17 7 0 10 -4032
-1 -1;
#X obj -24002 243 bng 50 250 50 0 empty empty empty 17 7 0 10 -4032
-1 -1;
#X obj -24001 421 bng 50 250 50 0 empty empty empty 17 7 0 10 -4032
-1 -1;
#X obj -24002 332 bng 50 250 50 0 empty empty empty 17 7 0 10 -1 -1
-1;
#X obj -24114 250 tgl 30 0 empty empty JOGx/y 32 15 0 22 -1 -1 -1 0
1;
#X obj -24311 372 bng 30 250 50 0 empty empty JOG+[down] 31 3 0 14
-260097 -1 -1;
#X obj -24311 405 bng 30 250 50 0 empty empty JOG-[up] 32 7 0 14 -260097
-1 -1;
#X obj -24312 339 tgl 30 0 empty empty JOGz 32 15 0 22 -1 -1 -1 0 1
;
#X obj -24317 42 tgl 12 0 empty empty send/receive:_'de'_prefix 15
6 0 12 -1 -1 -1 0 1;
#X msg -23527 664 0;
#X msg -23527 626 10000;
#X obj -23428 625 vradio 15 1 0 6 empty empty empty -35 8 0 14 -257985
-1 -1 0;
#X floatatom -23428 718 5 0 0 0 - - -, f 5;
#X obj -23514 786 tgl 20 0 empty empty on/off_cam&strobe 0 -6 0 12
-257985 -1 -1 0 1;
#X obj -23528 609 tgl 12 0 empty empty camera_delay 15 6 0 12 -1 -1
-1 0 1;
#X msg -23527 645 5000;
#X floatatom -23527 684 8 0 0 0 - - -, f 8;
#X msg -23410 661 0;
#X msg -23410 623 10000;
#X msg -23410 642 5000;
#X floatatom -23410 681 8 0 0 0 - - -, f 8;
#X obj -23428 610 tgl 12 0 empty empty strobe1_delay 15 6 0 12 -1 -1
-1 0 1;
#X obj -23301 624 vradio 15 1 0 6 empty empty empty -35 8 0 14 -257985
-1 -1 0;
#X floatatom -23301 717 5 0 0 0 - - -, f 5;
#X msg -23283 661 0;
#X msg -23283 623 10000;
#X msg -23283 642 5000;
#X floatatom -23283 681 8 0 0 0 - - -, f 8;
#X obj -23301 609 tgl 12 0 empty empty strobe2_delay 15 6 0 12 -1 -1
-1 0 1;
#X obj -23174 624 vradio 15 1 0 6 empty empty empty -35 8 0 14 -257985
-1 -1 0;
#X floatatom -23174 717 5 0 0 0 - - -, f 5;
#X msg -23156 661 0;
#X msg -23156 623 10000;
#X msg -23156 642 5000;
#X floatatom -23156 681 8 0 0 0 - - -, f 8;
#X obj -23174 609 tgl 12 0 empty empty strobe3_delay 15 6 0 12 -1 -1
-1 0 1;
#X obj -23528 576 tgl 30 0 empty empty settings_cam_and_strobe 32 15
0 22 -1 -1 -1 0 1;
#X floatatom -23979 1384 8 0 0 0 - - -, f 8;
#X floatatom -24309 532 12 0 0 0 - - -, f 12;
#X obj -24309 489 tgl 12 0 empty empty zABS-value 15 6 0 12 -1 -1 -1
0 1;
#X floatatom -23957 708 12 0 0 0 - - -, f 12;
#X obj -24004 756 +;
#X floatatom -24003 781 12 0 0 0 - - -, f 12;
#X floatatom -24153 1385 8 0 0 0 - - -, f 8;
#X obj -24172 1026 t a a;
#X obj -23803 698 tgl 12 0 empty empty d_step-size 15 6 0 12 -1 -1
-1 0 1;
#X floatatom -23702 701 12 0 0 0 - - -, f 12;
#X obj -23816 750 +;
#X floatatom -23817 777 12 0 0 0 - - -, f 12;
#X floatatom -24065 1382 8 0 0 0 - - -, f 8;
#X floatatom -23950 264 12 0 0 0 - - -, f 12;
#X floatatom -23949 303 12 0 0 0 - - -, f 12;
#X obj -24079 83 tgl 20 0 empty empty on/off_motors 0 -6 0 12 -257985
-1 -1 1 1;
#X obj -24316 133 s de_status;
#X obj -24184 106 s de_onoff;
#X obj -23514 809 s de_camledOnOff;
#X obj -23948 109 s de_bang;
#X obj -23527 705 s de_camValue;
#X obj -23410 697 s de_strobeValue1;
#X obj -23283 697 s de_strobeValue2;
#X obj -23156 697 s de_strobeValue3;
#X obj -23428 736 s de_strobeduration1;
#X obj -23301 735 s de_strobeduration2;
#X obj -23174 735 s de_strobeduration3;
#X obj -23950 244 r de_xback;
#X obj -23949 283 r de_yback;
#X obj -24114 293 s de_jog_xy_x-big;
#X obj -24114 313 s de_jog_xy_x-small;
#X obj -24309 504 r de_zback;
#X obj -24311 448 s de_jog_z_up;
#X obj -24311 468 s de_jog_z_down;
#X obj -24123 401 s de_jog_xy_y+big;
#X obj -24123 419 s de_jog_xy_y+small;
#X obj -24123 439 s de_jog_xy_x+small;
#X obj -24123 457 s de_jog_xy_x+big;
#X obj -23948 434 s de_jog_xy_y-big;
#X obj -23948 454 s de_jog_xy_y-small;
#X obj -22885 215 r de_bang2;
#X obj -22961 380 s de_towerA;
#X obj -22961 456 s de_towerB;
#X obj -22960 533 s de_towerC;
#X obj -22471 264 r de_x;
#X obj -22471 283 r de_y;
#X obj -24312 638 r de_jog_z_up;
#X obj -24217 638 r de_jog_z_down;
#X obj -24223 696 r de_zback;
#X obj -24312 796 send de_z_all;
#X obj -24085 602 r de_jog_xy_x-big;
#X obj -24086 620 r de_jog_xy_x+big;
#X obj -23975 600 r de_jog_xy_x-small;
#X obj -23976 621 r de_jog_xy_x+small;
#X obj -23799 596 r de_jog_xy_y+big;
#X obj -23799 616 r de_jog_xy_y-big;
#X obj -23690 596 r de_jog_xy_y+small;
#X obj -23690 615 r de_jog_xy_y-small;
#X obj -23957 687 r de_xback;
#X obj -23703 679 r de_yback;
#X obj -24077 972 r de_z_all;
#X obj -24307 1089 receive de_bang;
#X obj -23637 1103 r de_camValue;
#X obj -23637 1122 r de_strobeValue1;
#X obj -23637 1142 r de_strobeduration1;
#X obj -23637 1162 r de_strobeValue2;
#X obj -23637 1182 r de_strobeduration2;
#X obj -23637 1201 r de_strobeValue3;
#X obj -23638 1221 r de_strobeduration3;
#X obj -23639 1240 r de_camledOnOff;
#X obj -23851 1211 r de_gotoendstop;
#X obj -24307 1188 r de_onoff;
#X obj -24153 1286 r de_status;
#X obj -23808 1415 s de_zback;
#X obj -23979 1416 s de_xback;
#X obj -23893 1418 s de_yback;
#X obj -23009 219 loadbang;
#X msg -24113 740 0;
#X msg -24217 660 -5000;
#X msg -24312 660 5000;
#X obj -23852 1257 r d_fullautomation;
#X floatatom -24223 719 7 0 0 0 - - -, f 7;
#X obj -24099 1333 print arduino;
#X obj -24077 1024 t a a;
#X obj -24114 562 bng 34 250 50 0 empty empty set\ to\ 000 17 7 0 10
-262144 -1 -1;
#X obj -24312 757 +;
#X obj -23813 398 t a a;
#X msg -23812 442 /;
#X obj -23951 158 bng 29 250 50 0 empty empty goto_endstops 40 7 0
10 -262144 -1 -1;
#X obj -23812 494 s de_gotoendstop;
#X obj -24068 162 loadbang;
#X obj -24068 209 s motorspeed;
#X obj -24124 1145 r motorspeed;
#X obj -23737 419 r motorspeed;
#X obj -24091 162 bng 15 250 50 0 empty empty empty 17 7 0 10 -262144
-1 -1;
#X msg -24068 186 10000;
#X floatatom -23719 1390 8 0 0 0 - - -, f 8;
#X obj -24079 106 s delta_status;
#X obj -23775 349 r python_homeing;
#X obj -24119 1165 r delta_status;
#X obj -24214 1194 pack s f f f f f;
#X obj -23812 459 pack s f f f f f;
#X msg -23813 376 2;
#X floatatom -23633 1387 8 0 0 0 - - -, f 8;
#X obj -24003 820 s de_x;
#X obj -23817 814 s de_y;
#X obj -23927 1053 s de_bang2;
#X obj -24239 1354 routeOSC /x_movement /y_movement /z_movement /x-position
/y-position /z-position /delta_status /arduino_motorA /arduino_motorB
/arduino_motorC, f 145;
#X floatatom -23546 1387 8 0 0 0 - - -, f 8;
#X floatatom -23459 1386 8 0 0 0 - - -, f 8;
#X floatatom -23401 1383 8 0 0 0 - - -, f 8;
#X text -24079 1187 x \, y \, z \, speed \, status gets sent;
#X obj -24267 973 r de_x;
#X obj -24171 972 r de_y;
#X text -23927 1072 bang2: calculates the motorsABC;
#X obj -23170 401 print PurrDataCalculated: towerA;
#X obj -23171 468 print PurrDataCalculated: towerB;
#X obj -23173 523 print PurrDataCalculated: towerC;
#X floatatom -24243 1057 9 0 0 1 x-sum - -, f 9;
#X floatatom -24146 1056 9 0 0 1 y-sum - -, f 9;
#X text -23637 1079 unused for now;
#X obj -24301 157 bng 29 250 50 0 empty empty goto_focus 40 7 0 10
-262144 -1 -1;
#X obj -24301 249 s z_focus_position;
#X obj -24009 972 r z_focus_position;
#X floatatom -24184 200 6 0 0 0 - - -, f 6;
#X floatatom -24141 200 6 0 0 0 - - -, f 6;
#X obj -24184 219 s de_x;
#X obj -24141 219 s de_y;
#X msg -24046 653 10000;
#X msg -24086 653 -10000;
#X msg -23977 651 -1000;
#X msg -23999 674 1000;
#X msg -23796 678 10000;
#X msg -23755 677 1000;
#X msg -23764 657 -1000;
#X msg -23805 658 -10000;
#X obj -23993 341 bng 32 250 50 0 empty empty empty 17 7 0 10 -262144
-1 -1;
#X floatatom -23936 389 4 0 0 0 - - -, f 4;
#X floatatom -23894 387 4 0 0 0 - - -, f 4;
#X obj -23936 410 s de_x;
#X obj -23894 411 s de_y;
#X msg -23782 429 0;
#X obj -24072 1309 print PD_OSC-packOSC;
#X obj -24072 1229 print PD_OSC-pack;
#X obj -24073 1251 print PD_OSC-pack-trimmed;
#X obj -24073 1286 print PD_OSC-onoff_switched;
#X msg -24258 80 open 10;
#X msg -24259 61 open 9;
#X msg -24304 85 open 0;
#X msg -24304 105 open 1;
#X obj -23531 81 import mrpeach;
#X obj -23789 106 unpackOSC;
#X obj -23758 288 s de_jog_z_up;
#X obj -23779 311 s de_jog_z_down;
#X obj -23789 131 routeOSC /oscControl;
#X obj -23699 81 udpreceive 3001;
#X text -23699 60 receive from python;
#X text -23823 59 receive from App;
#X obj -23808 81 udpreceive 3002;
#X obj -23693 236 s de_jog_xy_x-big;
#X obj -23719 262 s de_jog_xy_x+big;
#X obj -23616 193 s de_jog_xy_y-big;
#X obj -23655 213 s de_jog_xy_y+big;
#X obj -23536 227 s python_fullautomation;
#X obj -23477 206 s python_homeing;
#X obj -23367 294 s de_x;
#X obj -23302 295 s de_y;
#X floatatom -23302 268 9 0 0 0 - - -, f 9;
#X floatatom -23367 267 9 0 0 0 - - -, f 9;
#X floatatom -23302 193 9 0 0 0 - - -, f 9;
#X floatatom -23367 194 9 0 0 0 - - -, f 9;
#X obj -23302 213 + 0.5;
#X obj -23302 236 int;
#X obj -23367 217 + 0.5;
#X obj -23367 240 int;
#X floatatom -23234 268 9 0 0 0 - - -, f 9;
#X floatatom -23234 193 9 0 0 0 - - -, f 9;
#X obj -23234 213 + 0.5;
#X obj -23234 236 int;
#X obj -23234 295 s de_z_all;
#X floatatom -23168 230 9 0 0 0 - - -, f 9;
#X text -23372 319 negative values are not rounded correctly!;
#X obj -23789 159 routeOSC /Jog- /Jog+ /X+ /X- /Y+ /Y- /fullautomation
/homeing /slider3Dx /slider3Dy /slider3Dz /slider3D, f 110;
#X floatatom -23467 186 9 0 0 0 - - -, f 9;
#X text -23806 11 this pd-part receives OSC via UDP and splits the
datastream into the delta microscope. X \, Y \, Z Axis is working \,
On/Off is untested, f 67;
#X msg -24258 100 open 7;
#X msg -24301 200 390000;
#X msg -24248 200 345000;
#X obj -24219 386 bng 24 250 50 0 empty empty JOG+[down] 26 11 0 10
-260097 -1 -1;
#X obj -24219 421 bng 22 250 50 0 empty empty JOG-[up] 24 9 0 10 -260097
-1 -1;
#X obj -24218 456 s de_jog_z_up_s;
#X obj -24218 474 s de_jog_z_down_s;
#X msg -24215 619 -1000;
#X msg -24310 619 1000;
#X obj -24310 597 r de_jog_z_up_s;
#X obj -24215 597 r de_jog_z_down_s;
#X obj -23285 103 print OSCfrompython;
#X obj -23285 128 print OSCunpackedfrompython;
#X connect 0 0 178 0;
#X connect 0 0 203 0;
#X connect 1 0 0 0;
#X connect 2 0 1 0;
#X connect 2 0 238 0;
#X connect 4 0 169 0;
#X connect 5 0 196 0;
#X connect 6 0 9 0;
#X connect 6 0 240 0;
#X connect 7 0 9 1;
#X connect 8 0 5 0;
#X connect 9 0 2 0;
#X connect 9 0 241 0;
#X connect 10 0 171 0;
#X connect 11 0 196 3;
#X connect 12 0 43 0;
#X connect 12 1 44 0;
#X connect 12 2 45 0;
#X connect 12 3 46 0;
#X connect 13 0 27 0;
#X connect 15 0 28 0;
#X connect 16 0 29 0;
#X connect 17 0 13 0;
#X connect 18 0 15 0;
#X connect 19 0 16 0;
#X connect 23 0 17 0;
#X connect 24 0 18 0;
#X connect 25 0 19 0;
#X connect 27 0 137 0;
#X connect 27 0 211 0;
#X connect 28 0 138 0;
#X connect 28 0 212 0;
#X connect 29 0 139 0;
#X connect 29 0 213 0;
#X connect 30 0 202 0;
#X connect 30 0 5 0;
#X connect 30 1 214 0;
#X connect 33 0 181 0;
#X connect 34 0 145 0;
#X connect 43 0 23 0;
#X connect 43 0 24 0;
#X connect 43 0 25 0;
#X connect 44 0 23 1;
#X connect 44 0 24 1;
#X connect 45 0 23 3;
#X connect 45 0 24 3;
#X connect 46 0 25 1;
#X connect 49 0 112 0;
#X connect 50 0 112 0;
#X connect 51 0 67 0;
#X connect 52 0 113 0;
#X connect 53 0 115 0;
#X connect 54 0 131 0;
#X connect 55 0 135 0;
#X connect 56 0 126 0;
#X connect 57 0 132 0;
#X connect 58 0 130 0;
#X connect 59 0 134 0;
#X connect 60 0 125 0;
#X connect 61 0 133 0;
#X connect 64 0 128 0;
#X connect 65 0 129 0;
#X connect 68 0 75 0;
#X connect 69 0 75 0;
#X connect 70 0 71 0;
#X connect 71 0 120 0;
#X connect 72 0 114 0;
#X connect 74 0 75 0;
#X connect 75 0 116 0;
#X connect 76 0 79 0;
#X connect 77 0 79 0;
#X connect 78 0 79 0;
#X connect 79 0 117 0;
#X connect 81 0 82 0;
#X connect 82 0 121 0;
#X connect 83 0 86 0;
#X connect 84 0 86 0;
#X connect 85 0 86 0;
#X connect 86 0 118 0;
#X connect 88 0 89 0;
#X connect 89 0 122 0;
#X connect 90 0 93 0;
#X connect 91 0 93 0;
#X connect 92 0 93 0;
#X connect 93 0 119 0;
#X connect 96 0 170 0;
#X connect 99 0 100 1;
#X connect 100 0 101 0;
#X connect 101 0 200 0;
#X connect 103 0 202 0;
#X connect 103 0 5 0;
#X connect 103 1 215 0;
#X connect 105 0 106 1;
#X connect 106 0 107 0;
#X connect 107 0 201 0;
#X connect 111 0 193 0;
#X connect 123 0 109 0;
#X connect 124 0 110 0;
#X connect 127 0 97 0;
#X connect 136 0 12 0;
#X connect 140 0 23 2;
#X connect 140 0 24 2;
#X connect 140 0 25 2;
#X connect 141 0 23 4;
#X connect 141 0 24 4;
#X connect 141 0 25 3;
#X connect 142 0 175 0;
#X connect 143 0 174 0;
#X connect 144 0 177 0;
#X connect 146 0 224 0;
#X connect 147 0 225 0;
#X connect 148 0 227 0;
#X connect 149 0 226 0;
#X connect 150 0 231 0;
#X connect 151 0 228 0;
#X connect 152 0 230 0;
#X connect 153 0 229 0;
#X connect 154 0 99 0;
#X connect 155 0 105 0;
#X connect 156 0 179 0;
#X connect 157 0 8 0;
#X connect 166 0 6 0;
#X connect 167 0 7 0;
#X connect 168 0 1 1;
#X connect 172 0 12 0;
#X connect 173 0 34 0;
#X connect 173 0 101 0;
#X connect 173 0 107 0;
#X connect 174 0 33 0;
#X connect 175 0 33 0;
#X connect 176 0 9 0;
#X connect 177 0 181 1;
#X connect 179 0 5 0;
#X connect 179 0 202 0;
#X connect 179 1 11 0;
#X connect 180 0 173 0;
#X connect 181 0 34 0;
#X connect 182 0 183 0;
#X connect 182 1 197 5;
#X connect 183 0 197 0;
#X connect 184 0 198 0;
#X connect 184 0 237 0;
#X connect 186 0 191 0;
#X connect 188 0 196 4;
#X connect 189 0 197 4;
#X connect 190 0 191 0;
#X connect 191 0 187 0;
#X connect 194 0 198 0;
#X connect 195 0 196 5;
#X connect 196 0 6 0;
#X connect 196 0 239 0;
#X connect 197 0 185 0;
#X connect 198 0 182 0;
#X connect 203 0 3 0;
#X connect 203 1 102 0;
#X connect 203 2 108 0;
#X connect 203 3 96 0;
#X connect 203 4 10 0;
#X connect 203 5 4 0;
#X connect 203 6 192 0;
#X connect 203 7 199 0;
#X connect 203 8 204 0;
#X connect 203 9 205 0;
#X connect 203 10 206 0;
#X connect 208 0 30 0;
#X connect 209 0 103 0;
#X connect 214 0 196 1;
#X connect 215 0 196 2;
#X connect 217 0 282 0;
#X connect 217 0 220 0;
#X connect 217 0 221 0;
#X connect 219 0 179 0;
#X connect 220 0 222 0;
#X connect 221 0 223 0;
#X connect 224 0 100 0;
#X connect 225 0 100 0;
#X connect 226 0 100 0;
#X connect 227 0 100 0;
#X connect 228 0 106 0;
#X connect 229 0 106 0;
#X connect 230 0 106 0;
#X connect 231 0 106 0;
#X connect 232 0 233 0;
#X connect 232 0 234 0;
#X connect 233 0 235 0;
#X connect 234 0 236 0;
#X connect 237 0 197 1;
#X connect 237 0 197 2;
#X connect 237 0 197 3;
#X connect 242 0 112 0;
#X connect 243 0 112 0;
#X connect 244 0 112 0;
#X connect 245 0 112 0;
#X connect 247 0 250 0;
#X connect 247 0 293 0;
#X connect 250 0 278 0;
#X connect 251 0 247 0;
#X connect 254 0 247 0;
#X connect 254 0 292 0;
#X connect 263 0 262 0;
#X connect 264 0 261 0;
#X connect 265 0 267 0;
#X connect 266 0 269 0;
#X connect 267 0 268 0;
#X connect 268 0 263 0;
#X connect 269 0 270 0;
#X connect 270 0 264 0;
#X connect 271 0 275 0;
#X connect 272 0 273 0;
#X connect 273 0 274 0;
#X connect 274 0 271 0;
#X connect 278 0 249 0;
#X connect 278 1 248 0;
#X connect 278 2 256 0;
#X connect 278 3 255 0;
#X connect 278 4 258 0;
#X connect 278 5 257 0;
#X connect 278 6 259 0;
#X connect 278 7 279 0;
#X connect 278 8 266 0;
#X connect 278 9 265 0;
#X connect 278 10 272 0;
#X connect 278 11 276 0;
#X connect 279 0 260 0;
#X connect 281 0 112 0;
#X connect 282 0 218 0;
#X connect 283 0 218 0;
#X connect 284 0 286 0;
#X connect 285 0 287 0;
#X connect 288 0 33 0;
#X connect 289 0 33 0;
#X connect 290 0 289 0;
#X connect 291 0 288 0;
